<svg width="512" height="512" version="1.1" xmlns="http://www.w3.org/2000/svg" desc="Created with imagetracer.js version 1.2.6" ><path fill="rgb(0,0,0)" stroke="rgb(0,0,0)" stroke-width="1" opacity="0" d="M 0 0 L 23 0.5 L 16 4.5 Q 11 8.5 12 18.5 L 16 27 L 24.5 31 L 35 31 L 35 101.5 L 38 109.5 L 40.5 112 Q 45 116.5 55.5 115 L 63 111 L 66 104.5 L 66 10.5 L 60.5 3 L 55 0.5 L 219.5 0 L 219.5 1 L 217.5 1 L 212 5.5 Q 208.1 9.6 209 18.5 L 214.5 28 L 220.5 31 L 269.5 31 L 273 34.5 Q 274 41 269.5 42 L 237.5 42 Q 231.8 43.3 229 47.5 Q 224.7 51.7 226 61.5 L 232.5 71 L 237.5 73 L 269.5 73 L 273 76.5 Q 274 83 269.5 84 L 220.5 84 L 212 89.5 Q 208.1 93.6 209 102.5 L 214.5 112 L 220.5 115 L 273.5 115 Q 288.3 111.8 296 101.5 Q 304.8 92.3 304 73.5 Q 302.4 63.6 297 57.5 L 303 46.5 L 304 31.5 Q 300.8 15.2 289.5 7 Q 283.4 1.6 273 0.5 L 434.5 0 L 434.5 1 Q 427.4 1.9 425 7.5 L 423 13.5 L 418 59.5 Q 419.2 67.8 425.5 71 L 430.5 73 L 470.5 73 L 474 75.5 L 475 78.5 L 471.5 84 L 430.5 84 Q 423.3 85.8 420 91.5 L 418 100.5 L 420 107.5 L 425.5 113 L 430.5 115 L 474.5 115 L 487.5 111 L 499 100.5 L 505 85.5 L 505 71.5 Q 501.8 55.7 490.5 48 Q 484 43.5 474.5 42 L 451 42 L 452 31 L 493.5 31 Q 500 29.5 503 24.5 Q 506.7 20.2 505 10.5 L 498.5 2 L 494 0.5 L 512 0 L 512 511.5 L 511.5 512 L 496.5 512 L 496.5 511 Q 502.3 510.3 505 506.5 Q 509 502.5 509 494.5 L 506 487.5 L 492 472.5 L 491 469.5 L 499 462.5 L 507 448.5 Q 509.7 440.2 508 427.5 Q 504.4 411.6 493.5 403 L 481.5 396 L 473.5 394 L 427.5 394 Q 421 395.5 418 400.5 L 415 407.5 L 415 498.5 Q 416.4 506.6 422.5 510 L 428 511.5 L 0 512 L 0 0 Z M 47 139 L 42 141 Q 37 144 35 151 L 35 362 L 37 367 L 47 373 Q 56 374 61 370 Q 65 367 66 361 L 66 271 L 196 271 L 203 288 L 208 295 Q 219 310 240 315 L 240 358 L 242 366 Q 245 371 253 373 Q 261 374 265 371 Q 270 369 271 363 L 271 317 L 288 309 L 295 304 Q 309 293 315 273 L 317 271 L 446 271 L 446 362 L 448 367 L 458 373 Q 467 374 472 370 L 477 362 L 477 151 L 475 146 Q 472 141 466 139 Q 457 138 453 141 Q 448 144 446 151 L 446 240 L 315 240 Q 313 227 305 219 Q 294 203 273 197 L 271 196 L 271 150 L 270 147 L 261 139 Q 250 138 246 142 L 241 149 Q 242 153 240 155 L 240 197 Q 227 199 219 207 Q 204 218 197 238 L 197 240 L 66 240 L 66 151 L 64 146 Q 60 138 47 139 Z M 16 389 L 11 391 L 4 400 Q 3 408 5 413 Q 8 418 16 420 L 65 420 Q 68 421 67 428 L 65 430 L 57 431 L 42 436 Q 30 441 21 449 L 8 465 L 3 481 L 4 493 L 7 499 L 16 504 L 87 504 L 92 502 Q 96 499 98 493 Q 99 483 95 479 Q 92 474 86 473 L 40 473 L 41 471 L 51 464 L 73 460 L 84 455 Q 95 448 98 432 L 98 419 Q 96 409 91 403 Q 83 392 68 389 L 16 389 Z M 216 392 L 209 395 L 203 403 L 203 458 L 205 462 L 214 468 L 254 468 L 254 496 L 256 501 Q 260 505 267 507 L 272 507 L 278 505 Q 284 502 285 494 L 285 468 L 299 468 L 303 466 Q 307 463 309 457 Q 310 449 307 445 L 300 438 L 285 437 L 285 406 L 283 400 Q 280 394 273 392 Q 264 391 260 395 L 254 403 L 254 437 L 234 437 L 234 406 L 232 400 Q 228 391 216 392 Z " /><path fill="rgb(0,0,0)" stroke="rgb(0,0,0)" stroke-width="1" opacity="0" d="M 248.5 226 L 263.5 226 L 266.5 227 Q 275.9 230.6 281 238.5 L 286 249.5 L 286 262.5 Q 282.7 274.7 273.5 281 L 262.5 286 L 249.5 286 Q 236.7 282.3 230 272.5 Q 224 264.5 226 248.5 Q 228.6 239.6 234.5 234 Q 240 228.5 248.5 226 Z " /><path fill="rgb(0,0,0)" stroke="rgb(0,0,0)" stroke-width="1" opacity="0" d="M 446 425 L 470.5 425 L 476 429.5 Q 478.3 432.7 477 439.5 L 472.5 445 L 470.5 446 L 446 446 L 446 425 Z " /><path fill="rgb(0,0,0)" stroke="rgb(0,0,0)" stroke-width="1" opacity="0" d="M 446 477 L 454.5 477 L 463 485.5 L 483.5 509 L 489 511.5 L 433.5 512 L 433.5 511 Q 441 510.5 444 505.5 L 446 500.5 L 446 477 Z " /><path fill="rgb(0,0,0)" stroke="rgb(0,0,0)" stroke-width="1" opacity="0.9882352941176471" d="M 23.5 0 L 54.5 0 L 63 5.5 L 66 10.5 L 66 104.5 L 63 111 L 55.5 115 L 46.5 115 L 38 109.5 L 35 101.5 L 35 31 L 24.5 31 L 16 27 L 12 18.5 L 12 12.5 L 17.5 3 L 23.5 0 Z " /><path fill="rgb(0,0,0)" stroke="rgb(0,0,0)" stroke-width="1" opacity="0.9882352941176471" d="M 220.5 0 L 272.5 0 Q 288.1 2.9 296 13.5 Q 304.8 22.7 304 41.5 Q 302.4 51.4 297 57.5 L 303 68.5 L 304 83.5 Q 300.8 99.8 289.5 108 Q 283.1 113.1 273.5 115 L 220.5 115 L 212 109.5 Q 208.1 105.4 209 96.5 L 214.5 87 L 220.5 84 L 269.5 84 L 273 80.5 Q 274 74 269.5 73 L 237.5 73 Q 231.8 71.8 229 67.5 Q 224.7 63.3 226 53.5 L 232.5 44 L 237.5 42 L 269.5 42 L 273 38.5 Q 274 32 269.5 31 L 220.5 31 L 212 25.5 Q 208.1 21.4 209 12.5 L 214.5 3 L 220.5 0 Z " /><path fill="rgb(0,0,0)" stroke="rgb(0,0,0)" stroke-width="1" opacity="0.9882352941176471" d="M 435.5 0 L 493.5 0 Q 500 1.5 503 6.5 Q 506.7 10.8 505 20.5 L 498.5 29 L 493.5 31 L 452 31 L 451 42 L 474.5 42 L 479.5 43 Q 492.3 46.7 499 56.5 L 505 71.5 L 505 85.5 Q 501.8 101.3 490.5 109 L 485.5 112 L 474.5 115 L 430.5 115 Q 423.3 113.2 420 107.5 L 418 98.5 L 420 91.5 L 425.5 86 L 430.5 84 L 471.5 84 L 474 81.5 L 475 78.5 L 472.5 74 L 470.5 73 L 430.5 73 Q 424 71.5 421 66.5 Q 417.5 63 418 55.5 L 419 54.5 L 419 46.5 L 421 37.5 L 423 13.5 Q 424.4 5.4 430.5 2 L 435.5 0 Z " /><path fill="rgb(0,0,0)" stroke="rgb(0,0,0)" stroke-width="1" opacity="0.9882352941176471" d="M 46.5 139 Q 59.8 137.8 64 145.5 L 66 150.5 L 66 240 L 196.5 240 L 197 237.5 Q 203.7 218.2 218.5 207 Q 227.4 199.4 240 197 L 240 154.5 Q 242.3 153.3 241 148.5 L 245.5 142 Q 250 137.5 260.5 139 L 270 146.5 L 271 149.5 L 271 195.5 L 272.5 197 Q 293.7 202.8 305 218.5 Q 312.6 227.4 315 240 L 446 240 L 446 150.5 Q 447.5 144 452.5 141 Q 456.9 137.9 465.5 139 Q 472 140.5 475 145.5 L 477 150.5 L 477 361.5 L 471.5 370 Q 467.3 374.3 457.5 373 L 448 366.5 L 446 361.5 L 446 271 L 316.5 271 L 315 272.5 Q 309.3 292.8 294.5 304 L 287.5 309 L 271 316.5 L 271 362.5 Q 269.6 368.6 264.5 371 Q 260.5 374 252.5 373 Q 245.3 371.2 242 365.5 L 240 357.5 L 240 315 Q 219.4 309.9 208 294.5 L 203 287.5 L 195.5 271 L 66 271 L 66 360.5 Q 65.1 367.1 60.5 370 Q 56.1 374 46.5 373 L 37 366.5 L 35 361.5 L 35 150.5 Q 36.5 144 41.5 141 L 46.5 139 Z M 249 226 Q 240 228 235 234 Q 229 240 226 249 Q 224 265 230 273 Q 237 282 250 286 L 263 286 L 274 281 Q 283 275 286 263 L 286 250 L 281 239 Q 276 231 267 227 L 264 226 L 249 226 Z " /><path fill="rgb(0,0,0)" stroke="rgb(0,0,0)" stroke-width="1" opacity="0.9882352941176471" d="M 15.5 389 L 67.5 389 Q 83.5 391.5 91 402.5 Q 96.1 408.9 98 418.5 L 98 431.5 Q 95.1 447.6 83.5 455 L 72.5 460 L 50.5 464 L 41 470.5 L 40 472.5 L 85.5 473 Q 92.1 473.9 95 478.5 Q 99.3 482.7 98 492.5 Q 96.5 499 91.5 502 L 86.5 504 L 15.5 504 L 7 498.5 L 4 492.5 L 3 480.5 L 8 464.5 L 20.5 449 Q 29.5 441 41.5 436 L 56.5 431 L 64.5 430 L 67 427.5 Q 68.3 421.3 64.5 420 L 15.5 420 Q 8.3 418.2 5 412.5 Q 2.8 407.7 4 399.5 L 10.5 391 L 15.5 389 Z " /><path fill="rgb(0,0,0)" stroke="rgb(0,0,0)" stroke-width="1" opacity="0.9882352941176471" d="M 215.5 392 Q 228.1 391.4 232 399.5 L 234 405.5 L 234 437 L 254 437 L 254 402.5 L 259.5 395 Q 263.6 391.1 272.5 392 Q 279.7 393.8 283 399.5 L 285 405.5 L 285 437 L 299.5 438 L 307 444.5 Q 310 448.5 309 456.5 Q 307.5 463 302.5 466 L 298.5 468 L 285 468 L 285 493.5 Q 283.6 501.6 277.5 505 L 271.5 507 L 266.5 507 Q 259.6 505.5 256 500.5 L 254 495.5 L 254 468 L 213.5 468 L 205 461.5 L 203 457.5 L 203 402.5 L 208.5 395 L 215.5 392 Z " /><path fill="rgb(0,0,0)" stroke="rgb(0,0,0)" stroke-width="1" opacity="0.9882352941176471" d="M 427.5 394 L 473.5 394 Q 490.2 397.3 499 408.5 L 507 423.5 Q 509.7 431.8 508 444.5 Q 504.6 459.1 494.5 467 L 491 469.5 L 492 472.5 L 508 490.5 L 509 498.5 L 503.5 508 Q 499.5 513 489.5 512 L 480 505.5 L 454.5 477 L 446 477 L 446 500.5 Q 444.8 506.3 440.5 509 Q 436.2 512.2 428.5 512 Q 420.4 510.6 417 504.5 L 415 498.5 L 415 407.5 Q 416.9 399.9 422.5 396 L 427.5 394 Z M 446 425 L 446 446 L 471 446 L 473 445 L 477 440 Q 478 433 476 430 L 471 425 L 446 425 Z " /></svg>